<?xml version="1.0" encoding="UTF-8"?>
<svg width="274px" height="334px" viewBox="0 0 274 334" version="1.1" xmlns="http://www.w3.org/2000/svg" xmlns:xlink="http://www.w3.org/1999/xlink">
    <title>iPhones</title>
    <g id="iPhones" stroke="none" stroke-width="1" fill="none" fill-rule="evenodd">
        <g id="NewObject" transform="translate(16.500854, 16.500854)" fill="#00072B">
            <path d="M146.877356,28.1126517 C152.503595,28.4166671 158.326309,30.061242 167.217567,33.8541977 L168.426931,34.375086 L169.633663,34.9040365 L213.4558,54.4149087 L214.671657,54.9648291 C226.412833,60.3199825 231.880239,64.1680596 236.508856,69.9265276 L236.969374,70.5091909 C241.428379,76.2449071 243.990151,82.9185505 244.514407,90.1646755 C245.097917,98.2297931 243.515862,105.044318 237.536659,118.473828 L167.140324,276.58426 L166.590114,277.800774 C161.41379,289.149954 157.645508,294.637153 152.198703,299.171239 L151.62879,299.637354 L151.046126,300.097872 C145.31041,304.556878 138.636767,307.118649 131.390642,307.642905 C123.933711,308.182413 117.565925,306.872733 106.055218,301.962336 L104.845854,301.441448 L103.638775,300.913277 L59.8170231,281.401541 L58.5537577,280.83 C53.3884475,278.472533 49.4394392,276.406676 46.2419748,274.340202 L47.8821302,274.352562 L55.4436279,274.353914 C57.2497946,275.264118 59.2768195,276.224997 61.5667989,277.254302 L105.469016,296.80229 L106.587861,297.292574 C118.879772,302.633627 124.477952,303.525067 130.284113,303.204673 L131.065916,303.154637 C137.425046,302.694555 143.250597,300.458335 148.284207,296.545155 L148.684189,296.230797 C153.518601,292.388168 157.215669,287.814056 163.303947,274.13956 L233.673791,116.086302 L234.17189,114.949469 C239.352966,103.022374 240.341664,97.401103 240.100672,91.77034 L240.075006,91.2501236 L240.026139,90.4894011 C239.566057,84.1302709 237.329837,78.3047203 233.416656,73.2711105 L232.943949,72.6730847 L232.619728,72.2751275 L232.290512,71.8817599 C228.637704,67.5782942 223.882738,64.0254343 211.575696,58.5037225 L167.803769,39.0142443 L166.704883,38.5326331 C157.692785,34.6154842 152.276628,33.0882927 147.741415,32.6763487 L147.749,32.732 L147.648742,32.0612232 C147.431882,30.6715548 147.175912,29.3626856 146.877356,28.1126517 Z M148.247344,37.2159222 C152.18501,37.6929515 156.994144,39.1550145 164.835068,42.6156186 L210.336543,62.8741804 C222.553186,68.3133805 226.416903,71.5577721 229.819669,75.9348241 C233.222435,80.3118762 235.166973,85.3775723 235.567045,90.9072508 L235.61384,91.6475319 L235.636417,92.1319828 C235.833972,97.1370595 234.893944,102.176811 230.064278,113.116012 L158.671657,273.46868 C153.232457,285.685323 149.988065,289.54904 145.611013,292.951806 C141.233961,296.354572 136.168265,298.29911 130.638587,298.699182 L130.144611,298.731971 C124.804183,299.053217 119.747848,298.23651 107.895881,292.959674 L66.1082019,274.35359 L96.022598,274.354073 C110.998336,274.310994 118.461595,272.839342 126.23449,268.682352 C133.425128,264.836757 139.122196,259.139689 142.967791,251.949051 L143.348617,251.223064 C147.266131,243.604209 148.639512,236.033599 148.639512,221.127053 L148.639512,48.7261662 C148.639512,44.3094119 148.518941,40.5366904 148.247344,37.2159222 Z M96.0854419,0 C109.879366,0.0392843254 116.661235,1.30154375 123.454601,4.79404606 L124.112295,5.13902622 C130.518725,8.56522266 135.573436,13.6199329 138.999632,20.0263632 C142.813074,27.1568798 144.139512,34.0257382 144.139512,48.7261662 L144.139512,221.127053 C144.139512,235.37516 142.893445,242.266226 139.344612,249.169162 L138.999632,249.826856 C135.573436,256.233286 130.518725,261.287997 124.112295,264.714193 C117.292149,268.361647 110.731891,269.727196 97.3400645,269.845618 L96.0225168,269.854073 L48.7261662,269.854073 C34.4780591,269.854073 27.5869933,268.608006 20.6840573,265.059173 L20.0263632,264.714193 C13.6199329,261.287997 8.56522266,256.233286 5.13902622,249.826856 C1.49157246,243.00671 0.126023045,236.446452 0.00760164993,223.054572 L0,221.737019 L0,48.0532163 C0.0392843261,34.2592921 1.30154375,27.4774229 4.79404606,20.6840573 L5.13902622,20.0263632 C8.56522266,13.6199329 13.6199329,8.56522266 20.0263632,5.13902622 C26.8465088,1.49157246 33.4067672,0.126023044 46.7985937,0.00760164987 L48.1161414,0 Z M96.0224356,4.5 L48.1162226,4.49914647 C33.6131224,4.54092679 28.0088,6.05288069 22.6109298,8.86313149 L22.1485581,9.10718561 C16.5263359,12.113983 12.113983,16.5263359 9.10718561,22.1485581 C6.10038826,27.7707803 4.49914647,33.3474679 4.49914647,48.7261662 L4.49914647,221.736997 C4.54092679,236.240097 6.05288069,241.844419 8.86313149,247.242289 L9.10718561,247.704661 C12.113983,253.326883 16.5263359,257.739236 22.1485581,260.746034 C22.6732988,261.026668 23.1976429,261.295058 23.7295968,261.551046 L24.1876075,261.767422 C29.2503343,264.114071 35.1929117,265.354073 48.7261662,265.354073 L96.0224356,265.354073 C110.318349,265.312877 115.967919,263.843237 121.296239,261.109732 L121.9901,260.746034 C127.612322,257.739236 132.024675,253.326883 135.031473,247.704661 L135.269014,247.254794 C138.122531,241.778045 139.639512,236.095653 139.639512,221.127053 L139.639512,48.1162226 C139.598269,33.8035106 138.12522,28.1574741 135.385529,22.8236364 L135.031473,22.1485581 C132.024675,16.5263359 127.612322,12.113983 121.9901,9.10718561 L121.765212,8.98766381 C116.217424,6.05797314 110.586141,4.49914647 95.412492,4.49914647 Z M96.6765549,8.9966452 C110.049336,8.9966452 114.89863,10.3890294 119.787518,13.0036358 C124.676407,15.6182421 128.513236,19.4550708 131.127842,24.3439596 C133.742449,29.2328485 135.134833,34.0821421 135.134833,47.4549232 L135.134833,222.398296 C135.134833,235.771077 133.742449,240.620371 131.127842,245.50926 C128.513236,250.398148 124.676407,254.234977 119.787518,256.849583 C114.89863,259.46419 110.049336,260.856574 96.6765549,260.856574 L47.4621033,260.856574 C34.0893222,260.856574 29.2400286,259.46419 24.3511398,256.849583 C19.4622509,254.234977 15.6254223,250.398148 13.0108159,245.50926 C10.4352335,240.693339 9.04566129,235.915841 9.00475528,222.991409 L9.00382531,47.4549232 C9.00382531,34.0821421 10.3962095,29.2328485 13.0108159,24.3439596 C15.6254223,19.4550708 19.4622509,15.6182421 24.3511398,13.0036358 C29.1670602,10.4280533 33.9445584,9.03848117 46.8689898,8.99757516 L96.6765549,8.9966452 Z M72.0693291,200.889924 C60.4592904,200.889924 51.0474945,210.286719 51.0474945,221.878252 C51.0474945,233.469785 60.4592904,242.866579 72.0693291,242.866579 C83.6793678,242.866579 93.0911637,233.469785 93.0911637,221.878252 C93.0911637,210.286719 83.6793678,200.889924 72.0693291,200.889924 Z M153.409097,63.7851165 C152.062039,66.8106572 153.422719,70.3553484 156.448259,71.7024059 L194.874554,88.8108945 C197.900095,90.157952 201.444786,88.7972726 202.791843,85.7717319 C204.138901,82.7461912 202.778221,79.2014999 199.752681,77.8544424 L161.326386,60.7459538 C158.300845,59.3988963 154.756154,60.7595758 153.409097,63.7851165 Z M93.1007372,26.9866401 L51.037921,26.9866401 C47.7260544,26.9866401 45.041256,29.6714385 45.041256,32.9833051 C45.041256,36.2951717 47.7260544,38.9799701 51.037921,38.9799701 L93.1007372,38.9799701 C96.4126038,38.9799701 99.0974021,36.2951717 99.0974021,32.9833051 C99.0974021,29.6714385 96.4126038,26.9866401 93.1007372,26.9866401 Z" id="Combined-Shape"></path>
        </g>
    </g>
</svg>