<?xml version="1.0" encoding="UTF-8"?>
<svg width="200px" height="200px" viewBox="0 0 200 200" version="1.1" xmlns="http://www.w3.org/2000/svg" xmlns:xlink="http://www.w3.org/1999/xlink">
    <title>logo-green</title>
    <defs>
        <path d="M54.99517,189.330748 C54.143653,188.901575 53.2969913,188.459455 52.4554779,188.004388 L184.31237,46.1885282 C187.514435,51.1950225 190.22631,56.4244135 192.447995,61.8084567 L54.99517,189.330748 L54.99517,189.330748 Z M72.3426401,196.118366 L193.858279,65.4248205 C206.89422,100.881806 199.178353,142.243003 170.710678,170.710678 C144.076082,197.345274 106.154974,205.814503 72.3426401,196.118365 L72.3426401,196.118366 Z M37.5495717,178.113382 C36.9156953,177.605326 36.2865695,177.088424 35.6623598,176.562677 L171.679988,30.2718264 C175.75063,34.454106 179.382444,38.904487 182.57543,43.565166 L37.5495605,178.113382 L37.5495717,178.113382 Z M23.185317,164.037251 C22.6612479,163.410087 22.1460632,162.778011 21.6397628,162.141191 L156.287427,17.3237767 C160.955061,20.5092413 165.412779,24.134009 169.602682,28.1980797 L23.1853171,164.037251 L23.185317,164.037251 Z M11.8058778,147.191968 C11.3522877,146.345034 10.9117681,145.492946 10.484319,144.635999 L138.010794,7.477628 C143.403199,9.69036063 148.641435,12.3941773 153.65707,15.5890776 L11.8058786,147.191968 L11.8058778,147.191968 Z M3.76544288,127.24891 C-5.7460354,93.5399605 2.76192425,55.8167195 29.2893218,29.2893219 C57.7049106,0.873733058 98.9668816,-6.86591562 134.380494,6.07037585 L3.76544628,127.24891 L3.76544288,127.24891 Z" id="path-1"></path>
    </defs>
    <g id="logo-green" stroke="none" stroke-width="1" fill="none" fill-rule="evenodd">
        <g id="prologue-logo-copy-12" transform="translate(0.000000, 0.000000)">
            <mask id="mask-2" fill="white">
                <use xlink:href="#path-1"></use>
            </mask>
            <use id="Combined-Shape" fill="#FFFFFF" fill-rule="nonzero" xlink:href="#path-1"></use>
            <rect id="Rectangle-4" fill="#C5F13F" fill-rule="nonzero" mask="url(#mask-2)" x="-6" y="0" width="212" height="200"></rect>
        </g>
    </g>
</svg>