<?xml version="1.0" encoding="UTF-8"?>
<svg width="626px" height="125px" viewBox="0 0 626 125" version="1.1" xmlns="http://www.w3.org/2000/svg" xmlns:xlink="http://www.w3.org/1999/xlink">
    <title>to-fight-thine-type-image</title>
    <g id="to-fight-thine-type-image" stroke="none" stroke-width="1" fill="none" fill-rule="evenodd">
        <g id="To-fight-thine-Enemi-Copy" transform="translate(29.726929, 13.055664)" fill="#000000" fill-rule="nonzero">
            <path d="M51.4434814,0 C48.4893799,2.61230469 45.1690674,4.12597656 41.506958,4.4921875 C37.8448486,4.8828125 34.0362549,4.8828125 30.0567627,4.51660156 C26.6143799,4.22363281 23.1964111,4.17480469 19.7784424,4.34570312 C16.3604736,4.54101562 13.0889893,5.44433594 9.96398926,7.08007812 C7.25402832,8.47167969 5.03234863,10.4492188 3.27453613,13.0126953 C1.51672363,15.5761719 0.41809082,18.7011719 0.0274658203,22.3876953 C-0.192260742,27.3925781 0.90637207,30.7617188 3.32336426,32.4707031 C5.74035645,34.1796875 8.42590332,34.765625 11.3555908,34.2041016 C14.2852783,33.6669922 16.4337158,32.5195312 17.8009033,30.7861328 C17.7520752,35.2783203 17.1661377,39.3310547 16.0675049,42.9199219 L33.3526611,42.9199219 C31.1309814,35.8642578 30.4718018,26.9775391 31.3995361,16.2841797 C32.3516846,16.6259766 33.3282471,16.8457031 34.3048096,16.9433594 C37.9425049,17.1630859 40.9698486,16.3818359 43.3868408,14.5996094 C45.7794189,12.8417969 47.6593018,10.5957031 48.9776611,7.88574219 C50.2716064,5.20019531 51.1016846,2.56347656 51.4434814,0 Z M14.6270752,7.32421875 C15.9698486,7.32421875 17.3614502,7.73925781 18.8262939,8.59375 C20.3155518,9.42382812 21.8292236,10.4248047 23.4161377,11.5966797 C24.8565674,12.6708984 26.3458252,13.6474609 27.8839111,14.5751953 C25.2960205,16.0888672 21.585083,16.9433594 16.7266846,17.1875 C17.3614502,20.4101562 17.7032471,24.1210938 17.8009033,28.2958984 C15.8966064,28.1982422 14.0655518,26.9775391 12.3321533,24.6826172 C10.5987549,22.3876953 9.5489502,19.7021484 9.13391113,16.6503906 C8.74328613,13.5742188 9.57336426,10.8642578 11.6729736,8.49609375 C12.600708,7.73925781 13.6016846,7.34863281 14.6270752,7.32421875 Z" id="Shape"></path>
            <path d="M49.0206299,15.8935547 C40.7930908,15.8935547 34.1280518,21.9482422 34.1280518,29.4189453 C34.1280518,36.8896484 40.7930908,42.96875 49.0206299,42.96875 C57.2237549,42.96875 63.8887939,36.8896484 63.8887939,29.4189453 C63.8887939,21.9482422 57.2237549,15.8935547 49.0206299,15.8935547 Z M48.8741455,17.3583984 C51.4620361,16.9189453 52.6094971,40.7958984 49.1671143,41.6748047 C45.6026611,41.6015625 45.3096924,17.96875 48.8741455,17.3583984 Z" id="Shape"></path>
            <path d="M81.6260986,17.7490234 L81.6260986,20.4101563 L83.5303955,20.4101563 C83.8477783,24.7070313 83.9210205,28.7841797 83.7989502,32.6171875 C83.6280518,36.8408203 83.1153564,40.3076172 82.2120361,42.9931641 L98.9356689,42.9931641 C97.9346924,39.8681641 97.2755127,36.2060547 96.9581299,32.0068359 C96.6895752,28.515625 96.5919189,24.6582031 96.6651611,20.4101563 L100.937622,20.4101563 L100.937622,17.7490234 L96.7384033,17.7490234 C93.9796143,17.6757813 91.8800049,17.0654297 90.4395752,15.9179688 C88.9991455,14.7705078 88.1690674,13.4521484 87.9981689,11.9384766 C87.9249268,10.6445313 88.1446533,9.93652344 88.7061768,9.79003906 C89.2677002,9.64355469 89.8292236,9.9609375 90.3907471,10.7177734 C90.9522705,11.4990234 91.2452393,12.9638672 91.3184814,15.0878906 C91.7579346,15.5029297 92.6368408,15.7226563 93.9552002,15.7958984 C95.2735596,15.8691406 96.5675049,15.625 97.8614502,15.0390625 C99.1309814,14.453125 99.9610596,13.6230469 100.351685,12.5732422 C100.74231,11.5234375 100.791138,10.4003906 100.498169,9.20410156 C100.2052,8.0078125 99.4483643,7.00683594 98.2032471,6.20117188 C96.9581299,5.39550781 95.0294189,5.05371094 92.4171143,5.17578125 C90.0733643,5.24902344 88.2178955,5.93261719 86.8262939,7.27539063 C85.4346924,8.61816406 84.4825439,10.3271484 83.9454346,12.4267578 C83.5059814,14.1113281 83.3106689,15.8935547 83.3594971,17.7490234 L81.6260986,17.7490234 Z" id="Path"></path>
            <path d="M102.95813,19.1650391 C104.056763,24.4384766 104.569458,37.109375 102.445435,42.9443359 L117.67981,42.9443359 C115.482544,36.9384766 115.165161,27.7099609 116.532349,18.9941406 C113.016724,20.8496094 106.229614,21.09375 102.95813,19.1650391 Z M109.549927,6.0546875 C105.936646,6.07910156 103.006958,8.95996094 103.006958,12.4755859 C103.006958,15.9667969 105.936646,18.7988281 109.549927,18.75 C113.187622,18.7011719 116.11731,15.8203125 116.11731,12.3291016 C116.11731,8.81347656 113.187622,6.00585937 109.549927,6.0546875 Z" id="Shape"></path>
            <path d="M132.249146,18.2861328 C132.981567,18.2861328 133.543091,18.75 133.933716,19.7021484 C134.299927,20.6298828 134.568481,21.8017578 134.714966,23.2177734 C134.837036,24.6337891 134.910278,26.0498047 134.910278,27.4902344 C134.885864,28.9306641 134.885864,30.6152344 134.86145,32.5439453 C133.469849,32.4951172 132.322388,31.7871094 131.443481,30.3955078 C130.564575,29.0039062 129.978638,27.4169922 129.661255,25.5615234 C129.343872,23.7304688 129.368286,22.0947266 129.783325,20.6787109 C130.17395,19.2626953 131.004028,18.4570312 132.249146,18.2861328 Z M133.713989,15.9912109 C130.296021,15.9912109 127.366333,16.8212891 124.973755,18.5058594 C122.507935,20.2392578 120.750122,22.5097656 119.700317,25.2929688 C118.626099,28.0761719 118.430786,31.0058594 119.089966,34.0820312 C119.920044,37.5244141 121.165161,39.8925781 122.849731,41.2109375 C124.509888,42.5537109 126.243286,43.0664062 128.074341,42.7978516 C129.880981,42.5292969 131.419067,41.7236328 132.688599,40.3564453 C133.95813,39.0136719 134.544067,37.3535156 134.421997,35.4003906 L135.300903,35.4003906 C135.349731,37.5244141 135.105591,39.3310547 134.544067,40.8447266 C133.982544,42.3583984 132.957153,43.5058594 131.516724,44.3115234 C130.05188,45.1171875 128.61145,45.5078125 127.195435,45.5078125 C125.925903,45.5078125 124.656372,45.2392578 123.386841,44.6777344 C122.11731,44.1162109 120.969849,43.3105469 119.944458,42.2607422 L119.920044,42.96875 C119.920044,46.1669922 120.994263,48.9013672 123.118286,51.1962891 C125.24231,53.515625 128.147583,54.8583984 131.834106,55.2734375 C134.714966,55.5419922 137.2052,55.2246094 139.329224,54.3212891 C141.428833,53.4423828 143.064575,52.1484375 144.212036,50.4394531 C145.359497,48.7304688 146.018677,46.9238281 146.140747,45.0195312 C146.262817,43.1152344 146.311646,40.8691406 146.311646,38.3056641 C146.311646,36.6210938 146.262817,34.7900391 146.140747,32.8125 C146.067505,31.3232422 146.018677,29.7851562 146.018677,28.2470703 C146.018677,26.0986328 146.116333,23.9746094 146.311646,21.8505859 C146.482544,19.7509766 146.799927,17.7978516 147.263794,15.9667969 L133.713989,15.9667969 L133.713989,15.9912109 Z" id="Shape"></path>
            <path d="M162.052856,4.85839844 C158.952271,7.12890625 154.899536,9.05761719 148.112427,9.25292969 C149.137817,15.1367188 149.821411,33.8867188 148.527466,41.3818359 C148.380981,41.8945312 148.234497,42.4072266 148.112427,42.9199219 L163.346802,42.9199219 C155.973755,18.9453125 171.647583,15.9667969 165.177856,42.9443359 L180.387817,42.9443359 C178.263794,38.5986328 178.044067,32.8857422 178.141724,24.7802734 C178.654419,15.0634766 163.957153,10.0830078 160.832153,23.1933594 L160.343872,23.1933594 C160.417114,19.5800781 161.320435,10.5957031 162.052856,4.85839844 Z" id="Path"></path>
            <path d="M194.664185,19.140625 L199.034302,19.140625 L199.034302,16.1376953 L194.737427,16.1376953 L194.737427,15.0634766 C194.761841,12.3779297 194.859497,10.3271484 195.005981,8.88671875 C193.516724,10.4980469 191.441528,12.109375 188.780396,13.7207031 C186.143677,15.3564453 184.019653,16.1376953 182.383911,16.1376953 L179.966919,16.1376953 L179.966919,19.140625 L182.115356,19.140625 C182.237427,21.7773438 182.286255,24.0478516 182.261841,25.9521484 C182.237427,28.2226562 182.286255,30.3466797 182.359497,32.2998047 C182.042114,35.7910156 182.335083,38.4033203 183.238403,40.0878906 C184.141724,41.7724609 185.362427,42.7978516 186.949341,43.1640625 C188.536255,43.5302734 190.171997,43.4326172 191.905396,42.9199219 C193.638794,42.4072266 195.152466,41.6992188 196.495239,40.7958984 C197.838013,39.8925781 198.692505,38.9892578 199.107544,38.1347656 C197.593872,38.5986328 196.495239,38.0126953 195.83606,36.3769531 C195.17688,34.7412109 194.761841,32.5439453 194.639771,29.7607422 C194.5177,27.0019531 194.5177,23.8037109 194.639771,20.1660156 C194.639771,19.8242188 194.664185,19.4824219 194.664185,19.140625 Z" id="Path"></path>
            <path d="M231.810669,19.140625 L236.180786,19.140625 L236.180786,16.1376953 L231.883911,16.1376953 L231.883911,15.0634766 C231.908325,12.3779297 232.005981,10.3271484 232.152466,8.88671875 C230.663208,10.4980469 228.588013,12.109375 225.92688,13.7207031 C223.290161,15.3564453 221.166138,16.1376953 219.530395,16.1376953 L217.113403,16.1376953 L217.113403,19.140625 L219.261841,19.140625 C219.383911,21.7773438 219.432739,24.0478516 219.408325,25.9521484 C219.383911,28.2226562 219.432739,30.3466797 219.505981,32.2998047 C219.188599,35.7910156 219.481567,38.4033203 220.384888,40.0878906 C221.288208,41.7724609 222.508911,42.7978516 224.095825,43.1640625 C225.682739,43.5302734 227.318481,43.4326172 229.05188,42.9199219 C230.785278,42.4072266 232.29895,41.6992188 233.641724,40.7958984 C234.984497,39.8925781 235.838989,38.9892578 236.254028,38.1347656 C234.740356,38.5986328 233.641724,38.0126953 232.982544,36.3769531 C232.323364,34.7412109 231.908325,32.5439453 231.786255,29.7607422 C231.664185,27.0019531 231.664185,23.8037109 231.786255,20.1660156 C231.786255,19.8242188 231.810669,19.4824219 231.810669,19.140625 Z" id="Path"></path>
            <path d="M251.311645,4.85839844 C248.21106,7.12890625 244.158325,9.05761719 237.371216,9.25292969 C238.396606,15.1367188 239.0802,33.8867188 237.786255,41.3818359 C237.63977,41.8945312 237.493286,42.4072266 237.371216,42.9199219 L252.605591,42.9199219 C245.232544,18.9453125 260.906372,15.9667969 254.436645,42.9443359 L269.646606,42.9443359 C267.522583,38.5986328 267.302856,32.8857422 267.400513,24.7802734 C267.913208,15.0634766 253.215942,10.0830078 250.090942,23.1933594 L249.602661,23.1933594 C249.675903,19.5800781 250.579224,10.5957031 251.311645,4.85839844 Z" id="Path"></path>
            <path d="M271.300903,19.1650391 C272.399536,24.4384766 272.912231,37.109375 270.788208,42.9443359 L286.022583,42.9443359 C283.825317,36.9384766 283.507935,27.7099609 284.875122,18.9941406 C281.359497,20.8496094 274.572388,21.09375 271.300903,19.1650391 Z M277.8927,6.0546875 C274.279419,6.07910156 271.349731,8.95996094 271.349731,12.4755859 C271.349731,15.9667969 274.279419,18.7988281 277.8927,18.75 C281.530395,18.7011719 284.460083,15.8203125 284.460083,12.3291016 C284.460083,8.81347656 281.530395,6.00585937 277.8927,6.0546875 Z" id="Shape"></path>
            <path d="M300.884888,16.0644531 L286.993286,15.9912109 C288.555786,21.9238281 288.653442,33.8623047 287.359497,41.3574219 C287.213013,41.8701172 287.066528,42.3828125 286.944458,42.8955078 L302.178833,42.8955078 C294.805786,18.9697266 310.479614,15.9667969 304.009888,42.8710937 L319.219849,42.8955078 C317.095825,38.5742187 317.36438,32.8857422 317.462036,24.8046875 C317.974731,15.5029297 302.789185,10.6201172 299.932739,23.1933594 L299.444458,23.1933594 C299.39563,20.9960937 300.225708,17.6513672 300.884888,16.0644531 Z" id="Path"></path>
            <path d="M331.95813,27.3193359 C330.664185,27.34375 329.931763,25.9765625 329.73645,23.2421875 C329.516724,20.5322266 329.834106,18.9208984 330.688599,18.4326172 C331.518677,17.9443359 332.226685,18.1152344 332.788208,18.9453125 C333.349731,19.7998047 333.618286,21.3867187 333.545044,23.7548828 C333.471802,26.1230469 332.959106,27.2949219 331.95813,27.3193359 Z M331.787231,29.4433594 C334.033325,30.6640625 336.743286,31.0058594 339.843872,30.46875 C342.968872,29.9072266 344.70227,28.2958984 345.068481,25.6347656 C345.410278,22.9736328 344.726685,20.8007812 343.042114,19.0917969 C341.357544,17.3828125 339.11145,16.3574219 336.352661,16.0400391 C333.569458,15.7226562 331.005981,16.0400391 328.662231,16.9433594 C326.049927,18.0175781 323.950317,19.6533203 322.314575,21.875 C320.678833,24.0966797 319.824341,26.6845703 319.799927,29.6386719 C319.775513,32.5195312 320.434692,34.9853516 321.777466,37.0117187 C323.095825,39.0380859 324.853638,40.6005859 327.075317,41.6992187 C329.272583,42.7978516 331.689575,43.359375 334.326294,43.4326172 C338.549927,43.3105469 341.796997,42.0410156 344.067505,39.6728516 C346.313599,37.3046875 347.436645,34.0576172 347.412231,29.9560547 C346.753052,30.5175781 346.02063,30.9814453 345.263794,31.3720703 C343.505981,32.2509766 341.479614,32.6904297 339.257935,32.6416016 C336.059692,32.5683594 333.569458,31.5185547 331.787231,29.4433594 Z" id="Shape"></path>
            <path d="M383.167114,35.8398437 C384.729614,35.4736328 385.901489,35.6933594 386.658325,36.4257812 C387.439575,37.1826172 387.70813,37.9882812 387.463989,38.8916016 C387.219849,39.7949219 386.365356,40.2832031 384.900513,40.3564453 C382.48352,40.1855469 380.872192,38.7695312 380.090942,36.1572266 C379.285278,33.5449219 379.334106,30.859375 380.237427,28.125 C381.116333,25.390625 382.874145,23.7792969 385.462036,23.2666016 C384.338989,23.1689453 383.191528,22.1923828 381.970825,20.3369141 C380.750122,18.5058594 379.89563,16.3574219 379.431763,13.9404297 C378.967895,11.4990234 379.309692,9.375 380.432739,7.56835937 C381.384888,6.42089844 382.434692,6.37207031 383.557739,7.421875 C384.7052,8.49609375 385.462036,10.0341797 385.877075,12.0849609 C386.2677,14.1601562 385.877075,16.1132812 384.656372,17.96875 C387.634888,18.7011719 389.954224,18.75 391.663208,18.0908203 C393.347778,17.4316406 394.324341,16.015625 394.61731,13.8671875 C394.910278,11.6943359 394.348755,9.83886719 392.908325,8.25195312 C391.49231,6.640625 389.221802,5.6640625 386.096802,5.2734375 C382.971802,4.8828125 380.188599,4.83398437 377.747192,5.12695312 C372.913208,5.93261719 369.666138,7.66601562 367.981567,10.3271484 C366.321411,12.9882812 366.126099,15.625 367.39563,18.2128906 C368.689575,20.8251953 371.350708,22.4121094 375.403442,22.9980469 L375.427856,23.6816406 C373.035278,23.1689453 370.813599,23.7792969 368.762817,25.5126953 C366.712036,27.2460937 365.442505,29.4189453 365.003052,32.0556641 C364.539185,34.6679687 365.540161,37.0605469 367.957153,39.2333984 C370.374145,41.3818359 374.866333,42.6269531 381.433716,42.96875 C387.219849,43.2617187 391.541138,42.2607422 394.421997,39.9902344 C397.302856,37.7197266 398.816528,35.2539062 398.963013,32.5927734 C399.133911,29.9316406 398.206177,27.7587891 396.204224,26.0986328 C394.641724,24.9023437 392.688599,24.3652344 390.393677,24.5361328 C388.098755,24.7070312 386.14563,25.6835937 384.58313,27.4902344 C382.996216,29.296875 382.532349,32.0800781 383.167114,35.8398437 Z" id="Path"></path>
            <path d="M414.215942,16.0644531 L400.324341,15.9912109 C401.886841,21.9238281 401.984497,33.8623047 400.690552,41.3574219 C400.544067,41.8701172 400.397583,42.3828125 400.275513,42.8955078 L415.509888,42.8955078 C408.136841,18.9697266 423.810669,15.9667969 417.340942,42.8710937 L432.550903,42.8955078 C430.42688,38.5742187 430.695435,32.8857422 430.793091,24.8046875 C431.305786,15.5029297 416.120239,10.6201172 413.263794,23.1933594 L412.775513,23.1933594 C412.726685,20.9960937 413.556763,17.6513672 414.215942,16.0644531 Z" id="Path"></path>
            <path d="M445.289185,27.3193359 C443.995239,27.34375 443.262817,25.9765625 443.067505,23.2421875 C442.847778,20.5322266 443.165161,18.9208984 444.019653,18.4326172 C444.849731,17.9443359 445.557739,18.1152344 446.119263,18.9453125 C446.680786,19.7998047 446.949341,21.3867187 446.876099,23.7548828 C446.802856,26.1230469 446.290161,27.2949219 445.289185,27.3193359 Z M445.118286,29.4433594 C447.36438,30.6640625 450.074341,31.0058594 453.174927,30.46875 C456.299927,29.9072266 458.033325,28.2958984 458.399536,25.6347656 C458.741333,22.9736328 458.057739,20.8007812 456.373169,19.0917969 C454.688599,17.3828125 452.442505,16.3574219 449.683716,16.0400391 C446.900513,15.7226562 444.337036,16.0400391 441.993286,16.9433594 C439.380981,18.0175781 437.281372,19.6533203 435.64563,21.875 C434.009888,24.0966797 433.155395,26.6845703 433.130981,29.6386719 C433.106567,32.5195312 433.765747,34.9853516 435.10852,37.0117187 C436.42688,39.0380859 438.184692,40.6005859 440.406372,41.6992187 C442.603638,42.7978516 445.02063,43.359375 447.657349,43.4326172 C451.880981,43.3105469 455.128052,42.0410156 457.39856,39.6728516 C459.644653,37.3046875 460.7677,34.0576172 460.743286,29.9560547 C460.084106,30.5175781 459.351685,30.9814453 458.594849,31.3720703 C456.837036,32.2509766 454.810669,32.6904297 452.588989,32.6416016 C449.390747,32.5683594 446.900513,31.5185547 445.118286,29.4433594 Z" id="Shape"></path>
            <path d="M475.312622,15.9667969 L461.005981,15.9667969 C462.055786,21.6308594 463.422974,33.1542969 460.957153,42.96875 L476.582153,42.96875 C469.184692,18.0419922 484.907349,17.3828125 478.388794,42.9443359 L493.549927,42.9443359 C486.762817,17.1875 501.460083,18.2861328 495.42981,42.8710937 L510.566528,42.8710937 C509.61438,40.0390625 508.491333,34.9609375 509.174927,25.5126953 C510.102661,15.6982422 494.502075,10.2294922 491.425903,23.3642578 L490.888794,23.3642578 C491.157349,14.6972656 477.021606,11.4013672 474.45813,23.2421875 L473.969849,23.2421875 C474.018677,21.1914062 474.531372,18.5302734 475.312622,15.9667969 Z" id="Path"></path>
            <path d="M512.220825,19.1650391 C513.319458,24.4384766 513.832153,37.109375 511.70813,42.9443359 L526.942505,42.9443359 C524.745239,36.9384766 524.427856,27.7099609 525.795044,18.9941406 C522.279419,20.8496094 515.49231,21.09375 512.220825,19.1650391 Z M518.812622,6.0546875 C515.199341,6.07910156 512.269653,8.95996094 512.269653,12.4755859 C512.269653,15.9667969 515.199341,18.7988281 518.812622,18.75 C522.450317,18.7011719 525.380005,15.8203125 525.380005,12.3291016 C525.380005,8.81347656 522.450317,6.00585937 518.812622,6.0546875 Z" id="Shape"></path>
            <path d="M539.656372,27.3193359 C538.362427,27.34375 537.630005,25.9765625 537.434692,23.2421875 C537.214966,20.5322266 537.532349,18.9208984 538.386841,18.4326172 C539.216919,17.9443359 539.924927,18.1152344 540.48645,18.9453125 C541.047974,19.7998047 541.316528,21.3867187 541.243286,23.7548828 C541.170044,26.1230469 540.657349,27.2949219 539.656372,27.3193359 Z M539.485474,29.4433594 C541.731567,30.6640625 544.441528,31.0058594 547.542114,30.46875 C550.667114,29.9072266 552.400513,28.2958984 552.766724,25.6347656 C553.10852,22.9736328 552.424927,20.8007812 550.740356,19.0917969 C549.055786,17.3828125 546.809692,16.3574219 544.050903,16.0400391 C541.2677,15.7226562 538.704224,16.0400391 536.360474,16.9433594 C533.748169,18.0175781 531.64856,19.6533203 530.012817,21.875 C528.377075,24.0966797 527.522583,26.6845703 527.498169,29.6386719 C527.473755,32.5195312 528.132935,34.9853516 529.475708,37.0117187 C530.794067,39.0380859 532.55188,40.6005859 534.77356,41.6992187 C536.970825,42.7978516 539.387817,43.359375 542.024536,43.4326172 C546.248169,43.3105469 549.495239,42.0410156 551.765747,39.6728516 C554.011841,37.3046875 555.134888,34.0576172 555.110474,29.9560547 C554.451294,30.5175781 553.718872,30.9814453 552.962036,31.3720703 C551.204224,32.2509766 549.177856,32.6904297 546.956177,32.6416016 C543.757935,32.5683594 541.2677,31.5185547 539.485474,29.4433594 Z" id="Shape"></path>
            <path d="M562.453247,30.5664062 C562.868286,30.7861328 564.626099,32.1533203 567.726685,34.6679688 C570.82727,37.1826172 572.194458,38.9404297 571.877075,39.8925781 C571.535278,40.8447266 570.680786,40.7958984 569.313599,39.6972656 C566.750122,37.2314453 564.919067,35.15625 563.79602,33.4472656 C563.136841,32.4462891 562.697388,31.4941406 562.453247,30.5664062 Z M572.707153,20.2880859 C572.536255,20.8984375 572.121216,21.484375 571.462036,22.0214844 C571.925903,23.1689453 572.731567,23.9257812 573.8302,24.3408203 C574.928833,24.7558594 575.954224,24.8535156 576.881958,24.6582031 C578.5177,24.3408203 579.567505,23.6328125 580.0802,22.5341797 C580.568481,21.4599609 580.519653,20.3125 579.909302,19.0673828 C579.445435,18.1396484 578.444458,17.3339844 576.83313,16.6259766 C575.246216,15.9423828 573.366333,15.6005859 571.217895,15.5761719 C571.071411,15.5761719 570.924927,15.5761719 570.778442,15.6005859 C568.48352,15.625 566.335083,15.9179688 564.33313,16.5039062 C562.331177,17.0898438 560.793091,17.8955078 559.743286,18.8964844 C558.693481,19.8974609 558.180786,21.1914062 558.180786,22.8271484 C558.156372,24.4628906 558.449341,25.7080078 559.035278,26.6113281 C559.596802,27.5146484 560.280395,28.3203125 561.037231,29.0527344 C558.08313,31.0791016 556.447388,33.0078125 556.130005,34.8388672 C555.763794,36.8896484 556.52063,38.6474609 558.400513,40.1123047 C560.280395,41.5527344 562.721802,42.578125 565.724731,43.1396484 C568.727661,43.7255859 571.730591,43.7255859 574.782349,43.1396484 C577.834106,42.5537109 580.104614,41.40625 581.545044,39.6972656 C582.96106,37.9882812 583.522583,36.2304688 583.254028,34.4238281 C582.96106,32.6416016 581.618286,30.9082031 579.250122,29.2480469 C576.881958,27.6123047 574.73352,26.0498047 572.829224,24.609375 C570.924927,23.1689453 569.606567,21.8261719 568.849731,20.5810547 C568.092895,19.3359375 568.11731,18.4814453 568.89856,18.0419922 C569.67981,17.6269531 570.58313,17.6513672 571.60852,18.1640625 C572.609497,18.6767578 573.000122,19.3847656 572.707153,20.2880859 Z" id="Shape"></path>
            <path d="M189.183228,85.8398437 C190.745728,85.4736328 191.917603,85.6933594 192.674438,86.4257812 C193.455688,87.1826172 193.724243,87.9882812 193.480103,88.8916016 C193.235962,89.7949219 192.38147,90.2832031 190.916626,90.3564453 C188.499634,90.1855469 186.888306,88.7695312 186.107056,86.1572266 C185.301392,83.5449219 185.35022,80.859375 186.25354,78.125 C187.132446,75.390625 188.890259,73.7792969 191.478149,73.2666016 C190.355103,73.1689453 189.207642,72.1923828 187.986938,70.3369141 C186.766235,68.5058594 185.911743,66.3574219 185.447876,63.9404297 C184.984009,61.4990234 185.325806,59.375 186.448853,57.5683594 C187.401001,56.4208984 188.450806,56.3720703 189.573853,57.421875 C190.721313,58.4960937 191.478149,60.0341797 191.893188,62.0849609 C192.283813,64.1601562 191.893188,66.1132812 190.672485,67.96875 C193.651001,68.7011719 195.970337,68.75 197.679321,68.0908203 C199.363892,67.4316406 200.340454,66.015625 200.633423,63.8671875 C200.926392,61.6943359 200.364868,59.8388672 198.924438,58.2519531 C197.508423,56.640625 195.237915,55.6640625 192.112915,55.2734375 C188.987915,54.8828125 186.204712,54.8339844 183.763306,55.1269531 C178.929321,55.9326172 175.682251,57.6660156 173.997681,60.3271484 C172.337524,62.9882812 172.142212,65.625 173.411743,68.2128906 C174.705688,70.8251953 177.366821,72.4121094 181.419556,72.9980469 L181.44397,73.6816406 C179.051392,73.1689453 176.829712,73.7792969 174.778931,75.5126953 C172.728149,77.2460937 171.458618,79.4189453 171.019165,82.0556641 C170.555298,84.6679687 171.556274,87.0605469 173.973267,89.2333984 C176.390259,91.3818359 180.882446,92.6269531 187.449829,92.96875 C193.235962,93.2617187 197.557251,92.2607422 200.43811,89.9902344 C203.31897,87.7197266 204.832642,85.2539062 204.979126,82.5927734 C205.150024,79.9316406 204.22229,77.7587891 202.220337,76.0986328 C200.657837,74.9023437 198.704712,74.3652344 196.40979,74.5361328 C194.114868,74.7070312 192.161743,75.6835937 190.599243,77.4902344 C189.012329,79.296875 188.548462,82.0800781 189.183228,85.8398437 Z" id="Path"></path>
            <path d="M220.866821,65.9667969 L206.560181,65.9667969 C207.609985,71.6308594 208.977173,83.1542969 206.511353,92.96875 L222.136353,92.96875 C214.738892,68.0419922 230.461548,67.3828125 223.942993,92.9443359 L239.104126,92.9443359 C232.317017,67.1875 247.014282,68.2861328 240.984009,92.8710937 L256.120728,92.8710937 C255.168579,90.0390625 254.045532,84.9609375 254.729126,75.5126953 C255.65686,65.6982422 240.056274,60.2294922 236.980103,73.3642578 L236.442993,73.3642578 C236.711548,64.6972656 222.575806,61.4013672 220.012329,73.2421875 L219.524048,73.2421875 C219.572876,71.1914062 220.085571,68.5302734 220.866821,65.9667969 Z" id="Path"></path>
            <path d="M256.920532,104.052734 L270.690063,104.248047 C269.933228,98.5595703 269.029907,89.5751953 269.054321,85.7177734 L269.542603,85.7177734 C270.860962,90.1123047 275.084595,93.1396484 278.746704,93.359375 C290.734009,93.0664062 293.321899,61.6210937 272.47229,66.2841797 L257.237915,66.2841797 C257.359985,66.796875 257.50647,67.3095703 257.62854,67.8222656 C258.946899,75.3173828 257.872681,97.8271484 256.920532,104.052734 Z M272.643188,67.8954796 C275.914673,67.8710937 276.183228,83.6914062 273.448853,85.7666016 C269.249634,88.28125 269.054321,67.8954796 272.643188,67.8954796 Z" id="Shape"></path>
            <path d="M289.678345,59.3261719 C290.801392,65.6005859 291.045532,86.6455078 289.28772,92.96875 L304.497681,92.96875 C302.300415,86.328125 301.836548,65.4785156 303.203735,55.0537109 C300.103149,57.2998047 296.465454,59.1308594 289.678345,59.3261719 Z" id="Path"></path>
            <path d="M319.75061,65.8935547 C311.523071,65.8935547 304.858032,71.9482422 304.858032,79.4189453 C304.858032,86.8896484 311.523071,92.96875 319.75061,92.96875 C327.953735,92.96875 334.618774,86.8896484 334.618774,79.4189453 C334.618774,71.9482422 327.953735,65.8935547 319.75061,65.8935547 Z M319.604126,67.3583984 C322.192017,66.9189453 323.339478,90.7958984 319.897095,91.6748047 C316.332642,91.6015625 316.039673,67.96875 319.604126,67.3583984 Z" id="Shape"></path>
            <path d="M338.079712,92.1630859 C335.00354,98.7304688 343.304321,106.347656 352.923462,105.053711 C363.397095,103.637695 365.008423,96.7529297 364.276001,82.7636719 C364.007446,77.1972656 364.153931,70.8740234 365.399048,65.9912109 L351.873657,65.9912109 C351.873657,65.9912109 352.85022,74.9511719 352.117798,78.515625 C351.067993,89.2089844 347.796509,83.0078125 349.627563,66.015625 L336.663696,66.1132812 C336.541626,77.0751953 334.271118,91.7724609 344.207642,92.96875 C348.016235,93.2617188 351.28772,91.1865234 352.679321,85.2294922 L353.167603,85.2294922 C354.925415,95.1416016 344.036743,98.1933594 338.079712,92.1630859 Z" id="Path"></path>
            <path d="M398.639282,65.9667969 C388.019165,65.6738281 381.598267,75.1708984 383.649048,84.2773438 C386.822876,98.2177734 399.127563,93.2861328 399.103149,85.6201172 L399.835571,85.5957031 C400.690063,98.1445313 413.824829,92.2119141 414.361938,88.3544922 C412.482056,88.2568359 411.041626,86.1328125 411.18811,83.0810547 C411.359009,78.7597656 410.773071,66.6259766 411.72522,65.9667969 L398.639282,65.9667969 Z M396.930298,69.0673828 C400.616821,68.7988281 399.151978,83.1054688 399.151978,83.1054688 C394.220337,83.0566406 391.803345,69.4091797 396.930298,69.0673828 Z" id="Shape"></path>
        </g>
    </g>
</svg>