<?xml version="1.0" encoding="UTF-8"?>
<svg width="132px" height="132px" viewBox="0 0 132 132" version="1.1" xmlns="http://www.w3.org/2000/svg" xmlns:xlink="http://www.w3.org/1999/xlink">
    <title>icon-Ruby</title>
    <g id="icon-Ruby" stroke="none" stroke-width="1" fill="none" fill-rule="evenodd">
        <g id="Change1" transform="translate(15.000149, 18.500000)" fill="#FF0058" fill-rule="nonzero">
            <path d="M20.788408,34.131 L48.225,92.789 L0.461422536,35.277802 C0.870315365,35.7706976 1.51137111,36.0588381 2.1990079,35.9900744 L20.788408,34.131 Z M81.211,34.131 L99.800993,35.9900744 C100.489572,36.0589323 101.131443,35.769907 101.541888,35.2741301 L53.774,92.789 L81.211,34.131 Z M76.834,33.999 L51.0000005,88.341 L25.166,33.999 L76.834,33.999 Z M51.0000005,4.877 L75.284,29.999 L26.716,29.999 L51.0000005,4.877 Z M50.6553563,0.0297313591 C50.2531682,0.0996874981 49.8683219,0.293095647 49.5620237,0.609955806 L24.186,26.8605954 L24.961,5.076 L50.6553563,0.0297313591 Z M51.3854911,0.037502359 L77.037,5.076 L77.813,26.8605954 L52.4379772,0.609955806 C52.1754359,0.338361384 51.8551858,0.157466398 51.5157708,0.0672708479 L51.3854911,0.037502359 Z M20.946,6.87 L20.066408,30.183 L1.80099302,32.0099256 C1.28770535,32.0612544 0.839237135,32.3023692 0.518188595,32.6567587 L0.432508709,32.7578367 L20.946,6.87 Z M81.933,30.182 L81.053,6.87 L101.594593,32.7928089 C101.270323,32.364685 100.775556,32.0675805 100.199008,32.0099256 L81.933,30.182 Z" id="Ruby"></path>
        </g>
    </g>
</svg>