<?xml version="1.0" encoding="UTF-8"?>
<svg width="132px" height="132px" viewBox="0 0 132 132" version="1.1" xmlns="http://www.w3.org/2000/svg" xmlns:xlink="http://www.w3.org/1999/xlink">
    <title>icon-iPhone</title>
    <g id="icon-iPhone" stroke="none" stroke-width="1" fill="none" fill-rule="evenodd">
        <g id="iPhoneIcon" transform="translate(30.000000, 1.000000)" fill="#F7F7F7">
            <path d="M23.4821186,7 L48.5178814,7 L49.350622,7.0044664 C54.4569424,7.06098313 56.4321036,7.65276333 58.4225797,8.71728161 C60.5178178,9.83782717 62.1621728,11.4821822 63.2827184,13.5774203 L63.4468625,13.8920374 C64.4614457,15.8896175 65,18.0374865 65,23.4821186 L65,106.517881 C65,112.249073 64.4032639,114.327342 63.2827184,116.42258 C62.1621728,118.517818 60.5178178,120.162173 58.4225797,121.282718 L58.1079626,121.446863 C56.1103825,122.461446 53.9625135,123 48.5178814,123 L23.4821186,123 C17.7509269,123 15.6726583,122.403264 13.5774203,121.282718 C11.4821822,120.162173 9.83782717,118.517818 8.71728161,116.42258 L8.55313747,116.107963 C7.53855429,114.110383 7,111.962514 7,106.517881 L7,23.4821186 C7,17.7509269 7.59673605,15.6726583 8.71728161,13.5774203 C9.83782717,11.4821822 11.4821822,9.83782717 13.5774203,8.71728161 L13.8920374,8.55313747 C15.8896175,7.53855429 18.0374865,7 23.4821186,7 Z M44.5714286,12.7142857 L27.4285714,12.7142857 C25.5350237,12.7142857 24,14.2493094 24,16.1428571 C24,18.0364049 25.5350237,19.5714286 27.4285714,19.5714286 L44.5714286,19.5714286 C46.4649763,19.5714286 48,18.0364049 48,16.1428571 C48,14.2493094 46.4649763,12.7142857 44.5714286,12.7142857 Z" id="Shape"></path>
            <path d="M48.5554253,0 L49.4280932,0.00489511692 C55.1206813,0.0679006485 58.3540124,0.74242223 61.7237717,2.54458923 C65.0388891,4.31753338 67.6824666,6.96111091 69.4888442,10.3395193 L69.6879911,10.7221299 C71.3977363,14.0883918 72,17.4681163 72,23.4821186 L72,106.517881 C72,112.799884 71.3453643,116.189866 69.4554108,119.723772 C67.6824666,123.038889 65.0388891,125.682467 61.6604807,127.488844 L61.2778701,127.687991 C57.9116082,129.397736 54.5318837,130 48.5178814,130 L23.4821186,130 C17.2001161,130 13.810134,129.345364 10.2762283,127.455411 C6.96111091,125.682467 4.31753338,123.038889 2.5111558,119.660481 L2.31200889,119.27787 C0.654074203,116.013616 0.0375178039,112.736703 0.0016731872,107.057425 L0,23.4821186 C0,17.2001161 0.654635733,13.810134 2.54458923,10.2762283 C4.31753338,6.96111091 6.96111091,4.31753338 10.3395193,2.5111558 L10.7221299,2.31200889 C13.9863839,0.654074203 17.2632969,0.0375178039 22.9425752,0.0016731872 L48.5554253,0 Z M49.3948912,3.00471138 L48.5393351,3 L23.4821186,3 C17.89949,3 14.9616083,3.52352778 12.0806617,4.98677828 L11.7271912,5.17092401 C8.89871291,6.68337358 6.68337358,8.89871291 5.19002882,11.6910248 C3.61073517,14.6440472 3.03311137,17.4859364 3.00139352,22.9895294 L3,106.517881 C3,112.10051 3.52352778,115.038392 4.98677828,117.919338 L5.17092401,118.272809 C6.68337358,121.101287 8.89871291,123.316626 11.6910248,124.809971 C14.7309008,126.435715 17.6530102,127 23.4821186,127 L48.5178814,127 L49.5043376,126.994138 C54.4564077,126.93309 57.2129945,126.38779 59.9193383,125.013222 L60.2728088,124.829076 C63.1012871,123.316626 65.3166264,121.101287 66.8099712,118.308975 C68.4357146,115.269099 69,112.34699 69,106.517881 L69,23.4821186 L68.9941384,22.4956624 C68.9330904,17.5435923 68.3877904,14.7870055 67.0132217,12.0806617 L66.829076,11.7271912 C65.3166264,8.89871291 63.1012871,6.68337358 60.3089752,5.19002882 C57.4122653,3.64085145 54.6412608,3.06277817 49.3948912,3.00471138 Z" id="Shape" fill-rule="nonzero"></path>
        </g>
    </g>
</svg>