<?xml version="1.0" encoding="UTF-8"?>
<svg width="132px" height="132px" viewBox="0 0 132 132" version="1.1" xmlns="http://www.w3.org/2000/svg" xmlns:xlink="http://www.w3.org/1999/xlink">
    <title>icon-Javascript</title>
    <g id="icon-Javascript" stroke="none" stroke-width="1" fill="none" fill-rule="evenodd">
        <path d="M94.6166888,22 C99.9658012,22 101.905519,22.5569537 103.861074,23.6027962 C105.81663,24.6486388 107.351361,26.1833702 108.397204,28.1389258 C109.443046,30.0944813 110,32.0341988 110,37.3833112 L110,94.6166888 C110,99.9658012 109.443046,101.905519 108.397204,103.861074 C107.351361,105.81663 105.81663,107.351361 103.861074,108.397204 C101.905519,109.443046 99.9658012,110 94.6166888,110 L37.3833112,110 C32.0341988,110 30.0944813,109.443046 28.1389258,108.397204 C26.1833702,107.351361 24.6486388,105.81663 23.6027962,103.861074 C22.5569537,101.905519 22,99.9658012 22,94.6166888 L22,37.3833112 C22,32.0341988 22.5569537,30.0944813 23.6027962,28.1389258 C24.6486388,26.1833702 26.1833702,24.6486388 28.1389258,23.6027962 C30.0944813,22.5569537 32.0341988,22 37.3833112,22 L94.6166888,22 Z M72.7564444,69.1777778 L66.3031111,69.1777778 L66.3031111,84.9786667 C66.3031111,88.968 64.7386667,90.8844444 61.5706667,90.8844444 C58.3244444,90.8844444 56.7991111,88.8897778 56.7991111,84.8222222 L56.7991111,83.8053333 L50.9715556,84.392 L50.9715556,85.8 C50.9715556,92.8008889 54.7653333,96.9466667 61.8444444,96.9466667 C68.9235556,96.9466667 72.7564444,92.7617778 72.7564444,85.0177778 L72.7564444,69.1777778 Z M86.3671111,68.7866667 C79.6791111,68.7866667 75.5724444,72.072 75.5724444,77.2737778 C75.5724444,81.4586667 78.232,83.8835556 83.5902222,84.9395556 L88.5573333,85.8782222 C91.1777778,86.4257778 92.2337778,87.1688889 92.2337778,88.5768889 C92.2337778,90.4933333 90.2,91.5102222 86.9537778,91.5102222 C83.512,91.5102222 80.696,90.2977778 78.5057778,87.912 L74.36,91.3537778 C77.2542222,95.1084444 81.4,96.9466667 86.8755556,96.9466667 C94.2675556,96.9466667 98.7262222,93.5831111 98.7262222,87.8337778 C98.7262222,83.4142222 96.184,80.9893333 90.6693333,79.9724444 L85.0764444,78.8773333 C82.8862222,78.4471111 81.9084444,77.704 81.9084444,76.4524444 C81.9084444,74.8488889 83.5511111,73.9102222 86.3671111,73.9102222 C89.496,73.9102222 92.0382222,75.0444444 93.7982222,77.1564444 L97.8657778,74.1448889 C95.3235556,70.6248889 91.4124444,68.7866667 86.3671111,68.7866667 Z" id="Combined-Shape-Copy-2" fill="#FFD039"></path>
    </g>
</svg>