<?xml version="1.0" encoding="UTF-8"?>
<svg width="132px" height="132px" viewBox="0 0 132 132" version="1.1" xmlns="http://www.w3.org/2000/svg" xmlns:xlink="http://www.w3.org/1999/xlink">
    <title>icon-prologue</title>
    <defs>
        <path d="M26.3976816,90.8787589 C25.9889535,90.6727562 25.5825558,90.4605386 25.1786294,90.2421062 L88.4699377,22.1704935 C90.0069287,24.5736108 91.3086286,27.0837185 92.3750376,29.6680592 L26.3976816,90.8787589 L26.3976816,90.8787589 Z M34.7244673,94.1368157 L93.0519738,31.4039139 C99.3092255,48.423267 95.6056095,68.2766413 81.9411254,81.9411255 C69.1565192,94.7257316 50.9543873,98.7909616 34.7244673,94.1368153 L34.7244673,94.1368157 Z M18.0237944,85.4944235 C17.7195337,85.2505563 17.4175533,85.0024434 17.1179327,84.7500849 L82.4063944,14.5304767 C84.3603024,16.5379709 86.1035729,18.6741537 87.6362064,20.9112797 L18.023789,85.4944235 L18.0237944,85.4944235 Z M11.1289522,78.7378807 C10.877399,78.4368418 10.6301103,78.1334455 10.3870861,77.8277718 L75.0179649,8.31541282 C77.2584294,9.84443582 79.398134,11.5843243 81.4092875,13.5350783 L11.1289522,78.7378807 L11.1289522,78.7378807 Z M5.66682134,70.6521444 C5.44909812,70.2456162 5.23764871,69.836614 5.0324731,69.4252797 L66.2451812,3.58926144 C68.8335354,4.6513731 71.3478888,5.94920511 73.7553938,7.48275726 L5.66682175,70.6521444 L5.66682134,70.6521444 Z M1.80741258,61.0794769 C-2.75809699,44.899181 1.32572364,26.7920254 14.0588745,14.0588745 C27.6983571,0.419391868 47.5041032,-3.2956395 64.5026373,2.91378041 L1.80741421,61.0794769 L1.80741258,61.0794769 Z" id="path-1"></path>
        <linearGradient x1="37.9198723%" y1="9.98449881%" x2="68.431602%" y2="84.1788184%" id="linearGradient-3">
            <stop stop-color="#006FFF" offset="0%"></stop>
            <stop stop-color="#FF008D" offset="100%"></stop>
        </linearGradient>
    </defs>
    <g id="icon-prologue" stroke="none" stroke-width="1" fill="none" fill-rule="evenodd">
        <g id="PrologueLogo" transform="translate(18.000000, 18.000000)">
            <mask id="mask-2" fill="white">
                <use xlink:href="#path-1"></use>
            </mask>
            <use id="Combined-Shape" fill="#FFFFFF" fill-rule="nonzero" xlink:href="#path-1"></use>
            <rect id="Rectangle-4" fill="url(#linearGradient-3)" fill-rule="nonzero" mask="url(#mask-2)" x="-2.88" y="0" width="101.76" height="96"></rect>
            <g id="Flag" mask="url(#mask-2)" fill-rule="nonzero">
                <rect id="Rectangle-3" fill="#5A00B4" x="0" y="0" width="96" height="19.2"></rect>
                <rect id="Rectangle-3-Copy" fill="#A000C8" x="0" y="19.2" width="96" height="19.2"></rect>
                <rect id="Rectangle-3-Copy-2" fill="#EB00AA" x="0" y="38.4" width="96" height="19.2"></rect>
                <rect id="Rectangle-3-Copy-3" fill="#FF4678" x="0" y="57.6" width="96" height="19.2"></rect>
                <rect id="Rectangle-3-Copy-4" fill="#FFA01E" x="0" y="76.8" width="96" height="19.2"></rect>
            </g>
        </g>
    </g>
</svg>